<svg xmlns="http://www.w3.org/2000/svg" width="900" height="1600" viewBox="0 0 900 1600">
<defs>
<linearGradient id="g" x1="0" y1="0" x2="1" y2="1"><stop stop-color="#f8f1e6"/><stop offset=".45" stop-color="#e2d6c6"/><stop offset="1" stop-color="#b9a998"/></linearGradient>
<filter id="blur"><feGaussianBlur stdDeviation="28"/></filter>
</defs>
<rect width="900" height="1600" fill="url(#g)"/>
<g opacity=".55" filter="url(#blur)">
<path d="M-80 220 C180 30 320 300 520 120 C720 -60 920 90 980 250 L980 -40 L-80 -40Z" fill="#fffaf2"/>
<path d="M-120 620 C120 430 245 780 505 545 C710 360 870 470 980 650 L980 210 C760 180 610 270 470 390 C280 560 120 350 -120 500Z" fill="#f6eadc"/>
<path d="M-120 1000 C110 790 300 1110 500 920 C680 750 830 820 1010 1030 L1010 690 C765 655 610 710 445 830 C235 985 80 750 -120 910Z" fill="#fff6eb"/>
<path d="M-80 1410 C170 1180 370 1510 610 1285 C760 1140 895 1220 990 1390 L990 1640 L-80 1640Z" fill="#d7c6b5"/>
</g>
<g opacity=".28" fill="none" stroke="#fff" stroke-width="3">
<path d="M80 0 C340 390 90 700 320 1050 C440 1230 420 1390 380 1600"/>
<path d="M760 0 C540 300 800 540 620 880 C510 1090 540 1320 700 1600"/>
<path d="M0 760 C250 710 380 650 540 510 C690 380 805 420 900 520"/>
</g>
</svg>
